M48
; DRILL file {KiCad (5.1.4)-1} date 4/4/2022 8:41:06 PM
; FORMAT={-:-/ absolute / inch / decimal}
; #@! TF.CreationDate,2022-04-04T20:41:06-04:00
; #@! TF.GenerationSoftware,Kicad,Pcbnew,(5.1.4)-1
FMAT,2
INCH
T1C0.0157
T2C0.0315
T3C0.0394
T4C0.0433
T5C0.0630
T6C0.1575
%
G90
G05
T1
X2.374Y-3.118
X2.416Y-3.022
X2.459Y-2.945
X2.468Y-2.86
X2.66Y-3.267
X2.73Y-2.99
X3.025Y-1.535
X3.1Y-0.858
X3.666Y-3.591
X3.697Y-3.558
X3.729Y-3.477
X4.146Y-0.788
X4.156Y-3.224
X4.178Y-2.674
X4.178Y-2.742
X4.188Y-2.608
X4.198Y-2.811
X4.212Y-2.77
X4.2133Y-2.6453
X4.214Y-2.706
X4.22Y-2.578
T2
X2.775Y-1.785
X2.775Y-2.385
X2.875Y-1.785
X2.875Y-2.385
X2.975Y-1.785
X2.975Y-2.385
X3.075Y-1.785
X3.075Y-2.385
X3.175Y-1.785
X3.175Y-2.385
X3.275Y-1.785
X3.275Y-2.385
X3.375Y-1.785
X3.375Y-2.385
X3.475Y-1.785
X3.475Y-2.385
X3.575Y-1.785
X3.575Y-2.385
X3.675Y-1.785
X3.675Y-2.385
X3.775Y-1.785
X3.775Y-2.385
X3.875Y-1.785
X3.875Y-2.385
X3.975Y-1.785
X3.975Y-2.385
X4.075Y-1.785
X4.075Y-2.385
X1.31Y-3.4025
X1.31Y-4.0025
X1.41Y-3.4025
X1.41Y-4.0025
X1.51Y-3.4025
X1.51Y-4.0025
X1.61Y-3.4025
X1.61Y-4.0025
X1.71Y-3.4025
X1.71Y-4.0025
X1.81Y-3.4025
X1.81Y-4.0025
X1.91Y-3.4025
X1.91Y-4.0025
X2.01Y-3.4025
X2.01Y-4.0025
X2.11Y-3.4025
X2.11Y-4.0025
X2.21Y-3.4025
X2.21Y-4.0025
X2.31Y-3.4025
X2.31Y-4.0025
X2.41Y-3.4025
X2.41Y-4.0025
X2.51Y-3.4025
X2.51Y-4.0025
X2.61Y-3.4025
X2.61Y-4.0025
X2.765Y-1.3175
X2.765Y-1.6175
X2.865Y-1.3175
X2.865Y-1.6175
X2.965Y-1.3175
X2.965Y-1.6175
X3.065Y-1.3175
X3.065Y-1.6175
X3.165Y-1.3175
X3.165Y-1.6175
X3.265Y-1.3175
X3.265Y-1.6175
X3.365Y-1.3175
X3.365Y-1.6175
X3.465Y-1.3175
X3.465Y-1.6175
X3.565Y-1.3175
X3.565Y-1.6175
X3.665Y-1.3175
X3.665Y-1.6175
X3.765Y-1.3175
X3.765Y-1.6175
X3.865Y-1.3175
X3.865Y-1.6175
X3.38Y-4.014
X3.88Y-4.014
X2.7725Y-3.08
X2.7725Y-3.68
X2.8725Y-3.08
X2.8725Y-3.68
X2.9725Y-3.08
X2.9725Y-3.68
X3.0725Y-3.08
X3.0725Y-3.68
X3.1725Y-3.08
X3.1725Y-3.68
X3.2725Y-3.08
X3.2725Y-3.68
X3.3725Y-3.08
X3.3725Y-3.68
X3.4725Y-3.08
X3.4725Y-3.68
X3.5725Y-3.08
X3.5725Y-3.68
X3.6725Y-3.08
X3.6725Y-3.68
X3.7725Y-3.08
X3.7725Y-3.68
X3.8725Y-3.08
X3.8725Y-3.68
X3.9725Y-3.08
X3.9725Y-3.68
X4.0725Y-3.08
X4.0725Y-3.68
X3.38Y-4.18
X3.88Y-4.18
X2.5176Y-4.18
X2.616Y-4.18
X1.33Y-0.895
X1.33Y-1.195
X1.63Y-0.895
X1.63Y-1.195
X2.856Y-1.174
X2.9544Y-1.174
X1.8375Y-0.8375
X1.8375Y-1.1375
X1.9375Y-0.8375
X1.9375Y-1.1375
X2.0375Y-0.8375
X2.0375Y-1.1375
X2.1375Y-0.8375
X2.1375Y-1.1375
X2.2375Y-0.8375
X2.2375Y-1.1375
X2.3375Y-0.8375
X2.3375Y-1.1375
X2.4375Y-0.8375
X2.4375Y-1.1375
X2.5375Y-0.8375
X2.5375Y-1.1375
X1.084Y-1.4496
X1.084Y-1.548
X4.122Y-4.552
X4.2007Y-4.552
X3.404Y-4.32
X3.404Y-4.62
X1.622Y-4.136
X1.622Y-4.636
X1.29Y-1.375
X1.29Y-1.975
X1.39Y-1.375
X1.39Y-1.975
X1.49Y-1.375
X1.49Y-1.975
X1.59Y-1.375
X1.59Y-1.975
X1.69Y-1.375
X1.69Y-1.975
X1.79Y-1.375
X1.79Y-1.975
X1.89Y-1.375
X1.89Y-1.975
X1.99Y-1.375
X1.99Y-1.975
X2.09Y-1.375
X2.09Y-1.975
X2.19Y-1.375
X2.19Y-1.975
X2.29Y-1.375
X2.29Y-1.975
X2.39Y-1.375
X2.39Y-1.975
X2.49Y-1.375
X2.49Y-1.975
X2.59Y-1.375
X2.59Y-1.975
X2.368Y-4.132
X2.368Y-4.632
X1.034Y-3.924
X1.1324Y-3.924
X1.408Y-4.1893
X1.408Y-4.268
X4.269Y-3.0436
X4.269Y-3.142
X3.098Y-4.376
X3.098Y-4.576
X3.198Y-4.476
X3.908Y-4.408
X3.9867Y-4.408
X4.076Y-0.932
X4.1744Y-0.932
X3.3575Y-2.5675
X3.3575Y-2.8675
X3.4575Y-2.5675
X3.4575Y-2.8675
X3.5575Y-2.5675
X3.5575Y-2.8675
X3.6575Y-2.5675
X3.6575Y-2.8675
X3.7575Y-2.5675
X3.7575Y-2.8675
X3.8575Y-2.5675
X3.8575Y-2.8675
X3.9575Y-2.5675
X3.9575Y-2.8675
X4.0575Y-2.5675
X4.0575Y-2.8675
X1.83Y-2.15
X1.83Y-2.25
X1.83Y-2.35
X1.83Y-2.45
X1.83Y-2.55
X1.83Y-2.65
X1.83Y-2.75
X1.83Y-2.85
X1.83Y-2.95
X1.83Y-3.05
X1.83Y-3.15
X1.83Y-3.25
X2.13Y-2.15
X2.13Y-2.25
X2.13Y-2.35
X2.13Y-2.45
X2.13Y-2.55
X2.13Y-2.65
X2.13Y-2.75
X2.13Y-2.85
X2.13Y-2.95
X2.13Y-3.05
X2.13Y-3.15
X2.13Y-3.25
X1.776Y-4.136
X1.776Y-4.636
X2.2775Y-2.245
X2.2775Y-2.345
X2.2775Y-2.445
X2.2775Y-2.545
X2.2775Y-2.645
X2.2775Y-2.745
X2.2775Y-2.845
X2.2775Y-2.945
X2.2775Y-3.045
X2.2775Y-3.145
X2.5775Y-2.245
X2.5775Y-2.345
X2.5775Y-2.445
X2.5775Y-2.545
X2.5775Y-2.645
X2.5775Y-2.745
X2.5775Y-2.845
X2.5775Y-2.945
X2.5775Y-3.045
X2.5775Y-3.145
X1.3825Y-2.15
X1.3825Y-2.25
X1.3825Y-2.35
X1.3825Y-2.45
X1.3825Y-2.55
X1.3825Y-2.65
X1.3825Y-2.75
X1.3825Y-2.85
X1.3825Y-2.95
X1.3825Y-3.05
X1.3825Y-3.15
X1.3825Y-3.25
X1.6825Y-2.15
X1.6825Y-2.25
X1.6825Y-2.35
X1.6825Y-2.45
X1.6825Y-2.55
X1.6825Y-2.65
X1.6825Y-2.75
X1.6825Y-2.85
X1.6825Y-2.95
X1.6825Y-3.05
X1.6825Y-3.15
X1.6825Y-3.25
X2.78Y-4.18
X3.28Y-4.18
X1.996Y-4.194
X2.0944Y-4.194
X3.986Y-3.9275
X3.986Y-4.2275
X4.086Y-3.9275
X4.086Y-4.2275
X4.186Y-3.9275
X4.186Y-4.2275
X4.286Y-3.9275
X4.286Y-4.2275
X4.386Y-3.9275
X4.386Y-4.2275
X4.486Y-3.9275
X4.486Y-4.2275
X4.586Y-3.9275
X4.586Y-4.2275
X2.78Y-4.014
X3.28Y-4.014
X2.1253Y-4.55
X2.204Y-4.55
X4.422Y-3.816
X4.5204Y-3.816
X2.522Y-4.314
X2.522Y-4.614
X2.622Y-4.314
X2.622Y-4.614
X2.722Y-4.314
X2.722Y-4.614
X2.822Y-4.314
X2.822Y-4.614
X2.8736Y-2.594
X2.972Y-2.594
T3
X0.9Y-1.78
X0.9Y-1.88
X0.9Y-1.98
X0.9Y-2.08
X0.9Y-2.18
X0.9Y-2.28
X0.9Y-2.38
X0.9Y-2.48
X0.9Y-2.58
X0.9Y-2.68
X0.9Y-2.78
X0.9Y-2.88
X0.9Y-2.98
X0.9Y-3.08
X0.9Y-3.18
X0.9Y-3.28
X0.9Y-3.38
X0.9Y-3.48
X0.9Y-3.58
X0.9Y-3.68
X1.0Y-1.78
X1.0Y-1.88
X1.0Y-1.98
X1.0Y-2.08
X1.0Y-2.18
X1.0Y-2.28
X1.0Y-2.38
X1.0Y-2.48
X1.0Y-2.58
X1.0Y-2.68
X1.0Y-2.78
X1.0Y-2.88
X1.0Y-2.98
X1.0Y-3.08
X1.0Y-3.18
X1.0Y-3.28
X1.0Y-3.38
X1.0Y-3.48
X1.0Y-3.58
X1.0Y-3.68
X2.7625Y-0.9375
X2.7625Y-1.0375
X2.8625Y-0.9375
X2.8625Y-1.0375
X2.9625Y-0.9375
X2.9625Y-1.0375
X3.0625Y-0.9375
X3.0625Y-1.0375
X3.1625Y-0.9375
X3.1625Y-1.0375
X3.2625Y-0.9375
X3.2625Y-1.0375
X3.3625Y-0.9375
X3.3625Y-1.0375
X3.4625Y-0.9375
X3.4625Y-1.0375
X3.5625Y-0.9375
X3.5625Y-1.0375
X3.6625Y-0.9375
X3.6625Y-1.0375
X3.7625Y-0.9375
X3.7625Y-1.0375
X3.8625Y-0.9375
X3.8625Y-1.0375
X4.425Y-1.78
X4.425Y-1.88
X4.425Y-1.98
X4.425Y-2.08
X4.425Y-2.18
X4.425Y-2.28
X4.425Y-2.38
X4.425Y-2.48
X4.425Y-2.58
X4.425Y-2.68
X4.425Y-2.78
X4.425Y-2.88
X4.425Y-2.98
X4.425Y-3.08
X4.425Y-3.18
X4.425Y-3.28
X4.425Y-3.38
X4.425Y-3.48
X4.425Y-3.58
X4.425Y-3.68
X4.525Y-1.78
X4.525Y-1.88
X4.525Y-1.98
X4.525Y-2.08
X4.525Y-2.18
X4.525Y-2.28
X4.525Y-2.38
X4.525Y-2.48
X4.525Y-2.58
X4.525Y-2.68
X4.525Y-2.78
X4.525Y-2.88
X4.525Y-2.98
X4.525Y-3.08
X4.525Y-3.18
X4.525Y-3.28
X4.525Y-3.38
X4.525Y-3.48
X4.525Y-3.58
X4.525Y-3.68
T4
X1.2241Y-4.4428
X1.2241Y-4.62
X1.48Y-4.4428
X1.48Y-4.62
X3.578Y-4.3581
X3.578Y-4.614
X3.7552Y-4.3581
X3.7552Y-4.614
T5
X4.11Y-1.43
X4.2281Y-1.245
X4.3462Y-1.43
T6
X0.98Y-4.455
X0.98Y-0.9925
X4.445Y-0.9925
X4.4425Y-4.455
T0
M30
