M48
; DRILL file {KiCad (5.1.4)-1} date 7/21/2022 3:03:58 PM
; FORMAT={-:-/ absolute / inch / decimal}
; #@! TF.CreationDate,2022-07-21T15:03:58-04:00
; #@! TF.GenerationSoftware,Kicad,Pcbnew,(5.1.4)-1
FMAT,2
INCH
T1C0.0157
T2C0.0315
T3C0.0394
T4C0.1260
T5C0.1575
%
G90
G05
T1
X1.34Y-1.737
X1.783Y-3.397
X1.899Y-3.351
X1.8996Y-3.4837
X1.979Y-2.45
X2.121Y-2.502
X2.2612Y-1.3388
X2.409Y-2.715
X2.409Y-2.9021
X2.4124Y-2.052
X2.4919Y-4.8292
X2.5364Y-2.076
X2.622Y-2.046
X2.668Y-3.3234
X2.7652Y-3.053
X3.1153Y-1.3404
X3.1158Y-3.8902
X3.136Y-2.301
X3.446Y-1.924
X3.446Y-2.088
X3.4474Y-2.3342
X3.4852Y-1.349
X3.592Y-1.9467
X3.8366Y-4.1281
X4.0705Y-1.9945
X4.257Y-1.7089
X4.5567Y-2.4481
X4.6575Y-2.4355
X5.0004Y-2.484
X5.022Y-2.4336
T2
X3.19Y-1.145
X3.19Y-1.445
X3.29Y-1.145
X3.29Y-1.445
X3.39Y-1.145
X3.39Y-1.445
X3.49Y-1.145
X3.49Y-1.445
X3.59Y-1.145
X3.59Y-1.445
X3.69Y-1.145
X3.69Y-1.445
X3.79Y-1.145
X3.79Y-1.445
X2.359Y-1.146
X2.359Y-1.446
X2.459Y-1.146
X2.459Y-1.446
X2.559Y-1.146
X2.559Y-1.446
X2.659Y-1.146
X2.659Y-1.446
X2.759Y-1.146
X2.759Y-1.446
X2.859Y-1.146
X2.859Y-1.446
X2.959Y-1.146
X2.959Y-1.446
X3.059Y-1.146
X3.059Y-1.446
X2.976Y-4.297
X3.0744Y-4.297
X1.958Y-4.114
X1.958Y-4.614
X4.8036Y-4.338
X4.902Y-4.338
X2.979Y-4.44
X2.979Y-4.94
X3.129Y-4.44
X3.129Y-4.94
X1.4978Y-4.1129
X1.4978Y-4.6129
X3.422Y-2.621
X3.422Y-2.721
X3.422Y-2.821
X3.422Y-2.921
X3.422Y-3.021
X3.422Y-3.121
X3.422Y-3.221
X3.422Y-3.321
X3.422Y-3.421
X3.422Y-3.521
X3.422Y-3.621
X3.422Y-3.721
X3.422Y-3.821
X3.422Y-3.921
X3.422Y-4.021
X3.422Y-4.121
X3.422Y-4.221
X3.422Y-4.321
X3.422Y-4.421
X3.422Y-4.521
X3.422Y-4.621
X3.422Y-4.721
X3.422Y-4.821
X3.422Y-4.921
X4.022Y-2.621
X4.022Y-2.721
X4.022Y-2.821
X4.022Y-2.921
X4.022Y-3.021
X4.022Y-3.121
X4.022Y-3.221
X4.022Y-3.321
X4.022Y-3.421
X4.022Y-3.521
X4.022Y-3.621
X4.022Y-3.721
X4.022Y-3.821
X4.022Y-3.921
X4.022Y-4.021
X4.022Y-4.121
X4.022Y-4.221
X4.022Y-4.321
X4.022Y-4.421
X4.022Y-4.521
X4.022Y-4.621
X4.022Y-4.721
X4.022Y-4.821
X4.022Y-4.921
X3.922Y-1.145
X3.922Y-1.445
X4.022Y-1.145
X4.022Y-1.445
X4.122Y-1.145
X4.122Y-1.445
X4.222Y-1.145
X4.222Y-1.445
X4.322Y-1.145
X4.322Y-1.445
X4.422Y-1.145
X4.422Y-1.445
X4.522Y-1.145
X4.522Y-1.445
X4.622Y-1.145
X4.622Y-1.445
X2.359Y-1.577
X2.359Y-2.177
X2.459Y-1.577
X2.459Y-2.177
X2.559Y-1.577
X2.559Y-2.177
X2.659Y-1.577
X2.659Y-2.177
X2.759Y-1.577
X2.759Y-2.177
X2.859Y-1.577
X2.859Y-2.177
X2.959Y-1.577
X2.959Y-2.177
X3.059Y-1.577
X3.059Y-2.177
X3.159Y-1.577
X3.159Y-2.177
X3.259Y-1.577
X3.259Y-2.177
X3.359Y-1.577
X3.359Y-2.177
X3.459Y-1.577
X3.459Y-2.177
X3.559Y-1.577
X3.559Y-2.177
X3.659Y-1.577
X3.659Y-2.177
X3.759Y-1.577
X3.759Y-2.177
X3.859Y-1.577
X3.859Y-2.177
X3.959Y-1.577
X3.959Y-2.177
X4.059Y-1.577
X4.059Y-2.177
X4.159Y-1.577
X4.159Y-2.177
X4.259Y-1.577
X4.259Y-2.177
X4.359Y-1.577
X4.359Y-2.177
X4.459Y-1.577
X4.459Y-2.177
X4.559Y-1.577
X4.559Y-2.177
X4.659Y-1.577
X4.659Y-2.177
X2.0856Y-4.5214
X2.0856Y-4.6198
X2.983Y-2.301
X2.983Y-2.401
X2.983Y-2.501
X2.983Y-2.601
X2.983Y-2.701
X2.983Y-2.801
X2.983Y-2.901
X2.983Y-3.001
X3.283Y-2.301
X3.283Y-2.401
X3.283Y-2.501
X3.283Y-2.601
X3.283Y-2.701
X3.283Y-2.801
X3.283Y-2.901
X3.283Y-3.001
X3.041Y-3.2645
X3.1394Y-3.2645
X1.556Y-1.221
X1.6544Y-1.221
X1.531Y-1.872
X1.531Y-2.172
X1.631Y-1.872
X1.631Y-2.172
X1.731Y-1.872
X1.731Y-2.172
X1.831Y-1.872
X1.831Y-2.172
X1.931Y-1.872
X1.931Y-2.172
X2.031Y-1.872
X2.031Y-2.172
X2.131Y-1.872
X2.131Y-2.172
X2.231Y-1.872
X2.231Y-2.172
X3.278Y-4.44
X3.278Y-4.94
X4.827Y-1.757
X4.9254Y-1.757
X1.809Y-4.114
X1.809Y-4.614
X1.533Y-1.444
X1.533Y-1.744
X1.633Y-1.444
X1.633Y-1.744
X1.733Y-1.444
X1.733Y-1.744
X1.833Y-1.444
X1.833Y-1.744
X1.933Y-1.444
X1.933Y-1.744
X2.033Y-1.444
X2.033Y-1.744
X2.133Y-1.444
X2.133Y-1.744
X2.233Y-1.444
X2.233Y-1.744
X4.268Y-2.572
X4.268Y-2.672
X4.268Y-2.772
X4.268Y-2.872
X4.268Y-2.972
X4.268Y-3.072
X4.268Y-3.172
X4.268Y-3.272
X4.268Y-3.372
X4.268Y-3.472
X4.268Y-3.572
X4.268Y-3.672
X4.568Y-2.572
X4.568Y-2.672
X4.568Y-2.772
X4.568Y-2.872
X4.568Y-2.972
X4.568Y-3.072
X4.568Y-3.172
X4.568Y-3.272
X4.568Y-3.372
X4.568Y-3.472
X4.568Y-3.572
X4.568Y-3.672
X1.522Y-2.694
X1.522Y-2.794
X1.522Y-2.894
X1.522Y-2.994
X1.522Y-3.094
X1.522Y-3.194
X1.522Y-3.294
X1.522Y-3.394
X1.522Y-3.494
X1.522Y-3.594
X1.522Y-3.694
X1.522Y-3.794
X1.522Y-3.894
X1.522Y-3.994
X2.122Y-2.694
X2.122Y-2.794
X2.122Y-2.894
X2.122Y-2.994
X2.122Y-3.094
X2.122Y-3.194
X2.122Y-3.294
X2.122Y-3.394
X2.122Y-3.494
X2.122Y-3.594
X2.122Y-3.694
X2.122Y-3.794
X2.122Y-3.894
X2.122Y-3.994
X1.665Y-2.283
X1.665Y-2.583
X1.965Y-2.283
X1.965Y-2.583
X2.244Y-2.302
X2.244Y-2.402
X2.244Y-2.502
X2.244Y-2.602
X2.244Y-2.702
X2.244Y-2.802
X2.244Y-2.902
X2.244Y-3.002
X2.244Y-3.102
X2.244Y-3.202
X2.244Y-3.302
X2.244Y-3.402
X2.244Y-3.502
X2.244Y-3.602
X2.244Y-3.702
X2.244Y-3.802
X2.244Y-3.902
X2.244Y-4.002
X2.244Y-4.102
X2.244Y-4.202
X2.244Y-4.302
X2.244Y-4.402
X2.244Y-4.502
X2.244Y-4.602
X2.844Y-2.302
X2.844Y-2.402
X2.844Y-2.502
X2.844Y-2.602
X2.844Y-2.702
X2.844Y-2.802
X2.844Y-2.902
X2.844Y-3.002
X2.844Y-3.102
X2.844Y-3.202
X2.844Y-3.302
X2.844Y-3.402
X2.844Y-3.502
X2.844Y-3.602
X2.844Y-3.702
X2.844Y-3.802
X2.844Y-3.902
X2.844Y-4.002
X2.844Y-4.102
X2.844Y-4.202
X2.844Y-4.302
X2.844Y-4.402
X2.844Y-4.502
X2.844Y-4.602
X1.192Y-4.112
X1.192Y-4.612
X3.677Y-2.422
X3.7754Y-2.422
X1.344Y-4.113
X1.344Y-4.613
X4.555Y-2.343
X4.6534Y-2.343
X1.657Y-4.114
X1.657Y-4.614
X4.268Y-3.81
X4.268Y-3.91
X4.268Y-4.01
X4.268Y-4.11
X4.268Y-4.21
X4.268Y-4.31
X4.268Y-4.41
X4.268Y-4.51
X4.268Y-4.61
X4.268Y-4.71
X4.268Y-4.81
X4.268Y-4.91
X4.568Y-3.81
X4.568Y-3.91
X4.568Y-4.01
X4.568Y-4.11
X4.568Y-4.21
X4.568Y-4.31
X4.568Y-4.41
X4.568Y-4.51
X4.568Y-4.61
X4.568Y-4.71
X4.568Y-4.81
X4.568Y-4.91
T3
X1.276Y-2.094
X1.276Y-2.194
X1.276Y-2.294
X1.276Y-2.394
X1.276Y-2.494
X1.276Y-2.594
X1.276Y-2.694
X1.276Y-2.794
X1.276Y-2.894
X1.276Y-2.994
X1.276Y-3.094
X1.276Y-3.194
X1.276Y-3.294
X1.276Y-3.394
X1.276Y-3.494
X1.276Y-3.594
X1.276Y-3.694
X1.276Y-3.794
X1.276Y-3.894
X1.276Y-3.994
X1.376Y-2.094
X1.376Y-2.194
X1.376Y-2.294
X1.376Y-2.394
X1.376Y-2.494
X1.376Y-2.594
X1.376Y-2.694
X1.376Y-2.794
X1.376Y-2.894
X1.376Y-2.994
X1.376Y-3.094
X1.376Y-3.194
X1.376Y-3.294
X1.376Y-3.394
X1.376Y-3.494
X1.376Y-3.594
X1.376Y-3.694
X1.376Y-3.794
X1.376Y-3.894
X1.376Y-3.994
X1.9724Y-4.755
X1.9724Y-4.9109
X2.0174Y-4.833
X2.0625Y-4.755
X2.0625Y-4.9109
X2.1076Y-4.833
X2.1527Y-4.755
X2.1527Y-4.9109
X2.1978Y-4.833
X2.2428Y-4.755
X2.2428Y-4.9109
X2.2879Y-4.833
X2.333Y-4.755
X2.333Y-4.9109
X2.3781Y-4.833
X4.801Y-2.094
X4.801Y-2.194
X4.801Y-2.294
X4.801Y-2.394
X4.801Y-2.494
X4.801Y-2.594
X4.801Y-2.694
X4.801Y-2.794
X4.801Y-2.894
X4.801Y-2.994
X4.801Y-3.094
X4.801Y-3.194
X4.801Y-3.294
X4.801Y-3.394
X4.801Y-3.494
X4.801Y-3.594
X4.801Y-3.694
X4.801Y-3.794
X4.801Y-3.894
X4.801Y-3.994
X4.901Y-2.094
X4.901Y-2.194
X4.901Y-2.294
X4.901Y-2.394
X4.901Y-2.494
X4.901Y-2.594
X4.901Y-2.694
X4.901Y-2.794
X4.901Y-2.894
X4.901Y-2.994
X4.901Y-3.094
X4.901Y-3.194
X4.901Y-3.294
X4.901Y-3.394
X4.901Y-3.494
X4.901Y-3.594
X4.901Y-3.694
X4.901Y-3.794
X4.901Y-3.894
X4.901Y-3.994
T4
X1.671Y-4.8357
X2.6552Y-4.8357
T5
X1.356Y-1.3065
X1.356Y-4.769
X4.8185Y-4.769
X4.821Y-1.3065
T0
M30
