G04 #@! TF.GenerationSoftware,KiCad,Pcbnew,(5.1.4)-1*
G04 #@! TF.CreationDate,2022-07-21T15:03:29-04:00*
G04 #@! TF.ProjectId,Layer3,4c617965-7233-42e6-9b69-6361645f7063,rev?*
G04 #@! TF.SameCoordinates,Original*
G04 #@! TF.FileFunction,Legend,Top*
G04 #@! TF.FilePolarity,Positive*
%FSLAX46Y46*%
G04 Gerber Fmt 4.6, Leading zero omitted, Abs format (unit mm)*
G04 Created by KiCad (PCBNEW (5.1.4)-1) date 2022-07-21 15:03:29*
%MOMM*%
%LPD*%
G04 APERTURE LIST*
%ADD10C,0.120000*%
%ADD11C,0.150000*%
G04 APERTURE END LIST*
D10*
X58588600Y-30668400D02*
X58588600Y-31918400D01*
X79028600Y-30668400D02*
X58588600Y-30668400D01*
X79028600Y-35168400D02*
X79028600Y-30668400D01*
X58588600Y-35168400D02*
X79028600Y-35168400D01*
X58588600Y-33918400D02*
X58588600Y-35168400D01*
X58588600Y-31918400D02*
G75*
G02X58588600Y-33918400I0J-1000000D01*
G01*
X58557600Y-118220800D02*
X63617600Y-118220800D01*
X58557600Y-57140800D02*
X58557600Y-118220800D01*
X70677600Y-57140800D02*
X58557600Y-57140800D01*
X70677600Y-118220800D02*
X70677600Y-57140800D01*
X65617600Y-118220800D02*
X70677600Y-118220800D01*
X63617600Y-118220800D02*
G75*
G02X65617600Y-118220800I1000000J0D01*
G01*
X120615400Y-102777600D02*
X125815400Y-102777600D01*
X120615400Y-54457600D02*
X120615400Y-102777600D01*
X125815400Y-51857600D02*
X125815400Y-102777600D01*
X120615400Y-54457600D02*
X123215400Y-54457600D01*
X123215400Y-54457600D02*
X123215400Y-51857600D01*
X123215400Y-51857600D02*
X125815400Y-51857600D01*
X120615400Y-53187600D02*
X120615400Y-51857600D01*
X120615400Y-51857600D02*
X121945400Y-51857600D01*
X37608200Y-38237600D02*
X37608200Y-39487600D01*
X58048200Y-38237600D02*
X37608200Y-38237600D01*
X58048200Y-42737600D02*
X58048200Y-38237600D01*
X37608200Y-42737600D02*
X58048200Y-42737600D01*
X37608200Y-41487600D02*
X37608200Y-42737600D01*
X37608200Y-39487600D02*
G75*
G02X37608200Y-41487600I0J-1000000D01*
G01*
X100598800Y-65243400D02*
X95538800Y-65243400D01*
X100598800Y-126323400D02*
X100598800Y-65243400D01*
X88478800Y-126323400D02*
X100598800Y-126323400D01*
X88478800Y-65243400D02*
X88478800Y-126323400D01*
X93538800Y-65243400D02*
X88478800Y-65243400D01*
X95538800Y-65243400D02*
G75*
G02X93538800Y-65243400I-1000000J0D01*
G01*
X59258200Y-118645675D02*
X59008200Y-118212662D01*
X59508200Y-118212662D02*
X59258200Y-118645675D01*
X59008200Y-118212662D02*
X59508200Y-118212662D01*
X70428200Y-119107000D02*
X70428200Y-127707000D01*
X39458200Y-119107000D02*
X70428200Y-119107000D01*
X39458200Y-127707000D02*
X39458200Y-119107000D01*
X31080400Y-102777600D02*
X36280400Y-102777600D01*
X31080400Y-54457600D02*
X31080400Y-102777600D01*
X36280400Y-51857600D02*
X36280400Y-102777600D01*
X31080400Y-54457600D02*
X33680400Y-54457600D01*
X33680400Y-54457600D02*
X33680400Y-51857600D01*
X33680400Y-51857600D02*
X36280400Y-51857600D01*
X31080400Y-53187600D02*
X31080400Y-51857600D01*
X31080400Y-51857600D02*
X32410400Y-51857600D01*
X39151000Y-60748200D02*
G75*
G02X39151000Y-62748200I0J-1000000D01*
G01*
X39151000Y-58978200D02*
X39151000Y-60748200D01*
X52751000Y-58978200D02*
X39151000Y-58978200D01*
X52751000Y-64518200D02*
X52751000Y-58978200D01*
X39151000Y-64518200D02*
X52751000Y-64518200D01*
X39151000Y-62748200D02*
X39151000Y-64518200D01*
X119668600Y-53735800D02*
X119668600Y-48675800D01*
X58588600Y-53735800D02*
X119668600Y-53735800D01*
X58588600Y-41615800D02*
X58588600Y-53735800D01*
X119668600Y-41615800D02*
X58588600Y-41615800D01*
X119668600Y-46675800D02*
X119668600Y-41615800D01*
X119668600Y-48675800D02*
G75*
G02X119668600Y-46675800I0J1000000D01*
G01*
X52338800Y-67097600D02*
X47278800Y-67097600D01*
X52338800Y-102777600D02*
X52338800Y-67097600D01*
X40218800Y-102777600D02*
X52338800Y-102777600D01*
X40218800Y-67097600D02*
X40218800Y-102777600D01*
X45278800Y-67097600D02*
X40218800Y-67097600D01*
X47278800Y-67097600D02*
G75*
G02X45278800Y-67097600I-1000000J0D01*
G01*
X79696000Y-30643000D02*
X79696000Y-31893000D01*
X97596000Y-30643000D02*
X79696000Y-30643000D01*
X97596000Y-35143000D02*
X97596000Y-30643000D01*
X79696000Y-35143000D02*
X97596000Y-35143000D01*
X79696000Y-33893000D02*
X79696000Y-35143000D01*
X79696000Y-31893000D02*
G75*
G02X79696000Y-33893000I0J-1000000D01*
G01*
X109967200Y-126044000D02*
X111217200Y-126044000D01*
X109967200Y-95444000D02*
X109967200Y-126044000D01*
X114467200Y-95444000D02*
X109967200Y-95444000D01*
X114467200Y-126044000D02*
X114467200Y-95444000D01*
X113217200Y-126044000D02*
X114467200Y-126044000D01*
X111217200Y-126044000D02*
G75*
G02X113217200Y-126044000I1000000J0D01*
G01*
X37557400Y-49108800D02*
X37557400Y-50358800D01*
X57997400Y-49108800D02*
X37557400Y-49108800D01*
X57997400Y-53608800D02*
X57997400Y-49108800D01*
X37557400Y-53608800D02*
X57997400Y-53608800D01*
X37557400Y-52358800D02*
X37557400Y-53608800D01*
X37557400Y-50358800D02*
G75*
G02X37557400Y-52358800I0J-1000000D01*
G01*
X98288800Y-30643000D02*
X98288800Y-31893000D01*
X118728800Y-30643000D02*
X98288800Y-30643000D01*
X118728800Y-35143000D02*
X118728800Y-30643000D01*
X98288800Y-35143000D02*
X118728800Y-35143000D01*
X98288800Y-33893000D02*
X98288800Y-35143000D01*
X98288800Y-31893000D02*
G75*
G02X98288800Y-33893000I0J-1000000D01*
G01*
X109967200Y-94598800D02*
X111217200Y-94598800D01*
X109967200Y-63998800D02*
X109967200Y-94598800D01*
X114467200Y-63998800D02*
X109967200Y-63998800D01*
X114467200Y-94598800D02*
X114467200Y-63998800D01*
X113217200Y-94598800D02*
X114467200Y-94598800D01*
X111217200Y-94598800D02*
G75*
G02X113217200Y-94598800I1000000J0D01*
G01*
X77328200Y-77555400D02*
X78578200Y-77555400D01*
X77328200Y-57115400D02*
X77328200Y-77555400D01*
X81828200Y-57115400D02*
X77328200Y-57115400D01*
X81828200Y-77555400D02*
X81828200Y-57115400D01*
X80578200Y-77555400D02*
X81828200Y-77555400D01*
X78578200Y-77555400D02*
G75*
G02X80578200Y-77555400I1000000J0D01*
G01*
X34137600Y-105510200D02*
X34137600Y-106200200D01*
X34137600Y-116130200D02*
X34137600Y-115440200D01*
X32417600Y-106200200D02*
X32417600Y-115440200D01*
X35857600Y-106200200D02*
X32417600Y-106200200D01*
X35857600Y-115440200D02*
X35857600Y-106200200D01*
X32417600Y-115440200D02*
X35857600Y-115440200D01*
X49733200Y-105535600D02*
X49733200Y-106225600D01*
X49733200Y-116155600D02*
X49733200Y-115465600D01*
X48013200Y-106225600D02*
X48013200Y-115465600D01*
X51453200Y-106225600D02*
X48013200Y-106225600D01*
X51453200Y-115465600D02*
X51453200Y-106225600D01*
X48013200Y-115465600D02*
X51453200Y-115465600D01*
X83261200Y-113816000D02*
X83261200Y-114506000D01*
X83261200Y-124436000D02*
X83261200Y-123746000D01*
X81541200Y-114506000D02*
X81541200Y-123746000D01*
X84981200Y-114506000D02*
X81541200Y-114506000D01*
X84981200Y-123746000D02*
X84981200Y-114506000D01*
X81541200Y-123746000D02*
X84981200Y-123746000D01*
X30276800Y-105484800D02*
X30276800Y-106174800D01*
X30276800Y-116104800D02*
X30276800Y-115414800D01*
X28556800Y-106174800D02*
X28556800Y-115414800D01*
X31996800Y-106174800D02*
X28556800Y-106174800D01*
X31996800Y-115414800D02*
X31996800Y-106174800D01*
X28556800Y-115414800D02*
X31996800Y-115414800D01*
X38044000Y-105508400D02*
X38044000Y-106198400D01*
X38044000Y-116128400D02*
X38044000Y-115438400D01*
X36324000Y-106198400D02*
X36324000Y-115438400D01*
X39764000Y-106198400D02*
X36324000Y-106198400D01*
X39764000Y-115438400D02*
X39764000Y-106198400D01*
X36324000Y-115438400D02*
X39764000Y-115438400D01*
X45948600Y-105535600D02*
X45948600Y-106225600D01*
X45948600Y-116155600D02*
X45948600Y-115465600D01*
X44228600Y-106225600D02*
X44228600Y-115465600D01*
X47668600Y-106225600D02*
X44228600Y-106225600D01*
X47668600Y-115465600D02*
X47668600Y-106225600D01*
X44228600Y-115465600D02*
X47668600Y-115465600D01*
X42087800Y-105535600D02*
X42087800Y-106225600D01*
X42087800Y-116155600D02*
X42087800Y-115465600D01*
X40367800Y-106225600D02*
X40367800Y-115465600D01*
X43807800Y-106225600D02*
X40367800Y-106225600D01*
X43807800Y-115465600D02*
X43807800Y-106225600D01*
X40367800Y-115465600D02*
X43807800Y-115465600D01*
X79476600Y-113816000D02*
X79476600Y-114506000D01*
X79476600Y-124436000D02*
X79476600Y-123746000D01*
X77756600Y-114506000D02*
X77756600Y-123746000D01*
X81196600Y-114506000D02*
X77756600Y-114506000D01*
X81196600Y-123746000D02*
X81196600Y-114506000D01*
X77756600Y-123746000D02*
X81196600Y-123746000D01*
X75666600Y-113816000D02*
X75666600Y-114506000D01*
X75666600Y-124436000D02*
X75666600Y-123746000D01*
X73946600Y-114506000D02*
X73946600Y-123746000D01*
X77386600Y-114506000D02*
X73946600Y-114506000D01*
X77386600Y-123746000D02*
X77386600Y-114506000D01*
X73946600Y-123746000D02*
X77386600Y-123746000D01*
X54344240Y-118713560D02*
X51604240Y-118713560D01*
X54344240Y-113473560D02*
X51604240Y-113473560D01*
X51604240Y-113473560D02*
X51604240Y-118713560D01*
X54344240Y-113473560D02*
X54344240Y-118713560D01*
X126475800Y-43257800D02*
X126475800Y-45997800D01*
X121235800Y-43257800D02*
X121235800Y-45997800D01*
X121235800Y-45997800D02*
X126475800Y-45997800D01*
X121235800Y-43257800D02*
X126475800Y-43257800D01*
X119567000Y-58142200D02*
X119567000Y-60882200D01*
X114327000Y-58142200D02*
X114327000Y-60882200D01*
X114327000Y-60882200D02*
X119567000Y-60882200D01*
X114327000Y-58142200D02*
X119567000Y-58142200D01*
X120640800Y-111555200D02*
X120640800Y-108815200D01*
X125880800Y-111555200D02*
X125880800Y-108815200D01*
X125880800Y-108815200D02*
X120640800Y-108815200D01*
X125880800Y-111555200D02*
X120640800Y-111555200D01*
X43392400Y-29643400D02*
X43392400Y-32383400D01*
X38152400Y-29643400D02*
X38152400Y-32383400D01*
X38152400Y-32383400D02*
X43392400Y-32383400D01*
X38152400Y-29643400D02*
X43392400Y-29643400D01*
X97265800Y-60148800D02*
X97265800Y-62888800D01*
X92025800Y-60148800D02*
X92025800Y-62888800D01*
X92025800Y-62888800D02*
X97265800Y-62888800D01*
X92025800Y-60148800D02*
X97265800Y-60148800D01*
X79460400Y-107773800D02*
X79460400Y-110513800D01*
X74220400Y-107773800D02*
X74220400Y-110513800D01*
X74220400Y-110513800D02*
X79460400Y-110513800D01*
X74220400Y-107773800D02*
X79460400Y-107773800D01*
X81111400Y-81548300D02*
X81111400Y-84288300D01*
X75871400Y-81548300D02*
X75871400Y-84288300D01*
X75871400Y-84288300D02*
X81111400Y-84288300D01*
X75871400Y-81548300D02*
X81111400Y-81548300D01*
D11*
X57040980Y-33680304D02*
X57850504Y-33680304D01*
X57945742Y-33632685D01*
X57993361Y-33585066D01*
X58040980Y-33489828D01*
X58040980Y-33299352D01*
X57993361Y-33204114D01*
X57945742Y-33156495D01*
X57850504Y-33108876D01*
X57040980Y-33108876D01*
X57136219Y-32680304D02*
X57088600Y-32632685D01*
X57040980Y-32537447D01*
X57040980Y-32299352D01*
X57088600Y-32204114D01*
X57136219Y-32156495D01*
X57231457Y-32108876D01*
X57326695Y-32108876D01*
X57469552Y-32156495D01*
X58040980Y-32727923D01*
X58040980Y-32108876D01*
X63855695Y-118673180D02*
X63855695Y-119482704D01*
X63903314Y-119577942D01*
X63950933Y-119625561D01*
X64046171Y-119673180D01*
X64236647Y-119673180D01*
X64331885Y-119625561D01*
X64379504Y-119577942D01*
X64427123Y-119482704D01*
X64427123Y-118673180D01*
X65379504Y-118673180D02*
X64903314Y-118673180D01*
X64855695Y-119149371D01*
X64903314Y-119101752D01*
X64998552Y-119054133D01*
X65236647Y-119054133D01*
X65331885Y-119101752D01*
X65379504Y-119149371D01*
X65427123Y-119244609D01*
X65427123Y-119482704D01*
X65379504Y-119577942D01*
X65331885Y-119625561D01*
X65236647Y-119673180D01*
X64998552Y-119673180D01*
X64903314Y-119625561D01*
X64855695Y-119577942D01*
X122882066Y-50309980D02*
X122882066Y-51024266D01*
X122834447Y-51167123D01*
X122739209Y-51262361D01*
X122596352Y-51309980D01*
X122501114Y-51309980D01*
X123310638Y-50405219D02*
X123358257Y-50357600D01*
X123453495Y-50309980D01*
X123691590Y-50309980D01*
X123786828Y-50357600D01*
X123834447Y-50405219D01*
X123882066Y-50500457D01*
X123882066Y-50595695D01*
X123834447Y-50738552D01*
X123263019Y-51309980D01*
X123882066Y-51309980D01*
X36060580Y-41249504D02*
X36870104Y-41249504D01*
X36965342Y-41201885D01*
X37012961Y-41154266D01*
X37060580Y-41059028D01*
X37060580Y-40868552D01*
X37012961Y-40773314D01*
X36965342Y-40725695D01*
X36870104Y-40678076D01*
X36060580Y-40678076D01*
X36489152Y-40059028D02*
X36441533Y-40154266D01*
X36393914Y-40201885D01*
X36298676Y-40249504D01*
X36251057Y-40249504D01*
X36155819Y-40201885D01*
X36108200Y-40154266D01*
X36060580Y-40059028D01*
X36060580Y-39868552D01*
X36108200Y-39773314D01*
X36155819Y-39725695D01*
X36251057Y-39678076D01*
X36298676Y-39678076D01*
X36393914Y-39725695D01*
X36441533Y-39773314D01*
X36489152Y-39868552D01*
X36489152Y-40059028D01*
X36536771Y-40154266D01*
X36584390Y-40201885D01*
X36679628Y-40249504D01*
X36870104Y-40249504D01*
X36965342Y-40201885D01*
X37012961Y-40154266D01*
X37060580Y-40059028D01*
X37060580Y-39868552D01*
X37012961Y-39773314D01*
X36965342Y-39725695D01*
X36870104Y-39678076D01*
X36679628Y-39678076D01*
X36584390Y-39725695D01*
X36536771Y-39773314D01*
X36489152Y-39868552D01*
X93776895Y-63695780D02*
X93776895Y-64505304D01*
X93824514Y-64600542D01*
X93872133Y-64648161D01*
X93967371Y-64695780D01*
X94157847Y-64695780D01*
X94253085Y-64648161D01*
X94300704Y-64600542D01*
X94348323Y-64505304D01*
X94348323Y-63695780D01*
X94872133Y-64695780D02*
X95062609Y-64695780D01*
X95157847Y-64648161D01*
X95205466Y-64600542D01*
X95300704Y-64457685D01*
X95348323Y-64267209D01*
X95348323Y-63886257D01*
X95300704Y-63791019D01*
X95253085Y-63743400D01*
X95157847Y-63695780D01*
X94967371Y-63695780D01*
X94872133Y-63743400D01*
X94824514Y-63791019D01*
X94776895Y-63886257D01*
X94776895Y-64124352D01*
X94824514Y-64219590D01*
X94872133Y-64267209D01*
X94967371Y-64314828D01*
X95157847Y-64314828D01*
X95253085Y-64267209D01*
X95300704Y-64219590D01*
X95348323Y-64124352D01*
X54609866Y-117619380D02*
X54609866Y-118333666D01*
X54562247Y-118476523D01*
X54467009Y-118571761D01*
X54324152Y-118619380D01*
X54228914Y-118619380D01*
X54990819Y-117619380D02*
X55609866Y-117619380D01*
X55276533Y-118000333D01*
X55419390Y-118000333D01*
X55514628Y-118047952D01*
X55562247Y-118095571D01*
X55609866Y-118190809D01*
X55609866Y-118428904D01*
X55562247Y-118524142D01*
X55514628Y-118571761D01*
X55419390Y-118619380D01*
X55133676Y-118619380D01*
X55038438Y-118571761D01*
X54990819Y-118524142D01*
X33347066Y-50309980D02*
X33347066Y-51024266D01*
X33299447Y-51167123D01*
X33204209Y-51262361D01*
X33061352Y-51309980D01*
X32966114Y-51309980D01*
X34347066Y-51309980D02*
X33775638Y-51309980D01*
X34061352Y-51309980D02*
X34061352Y-50309980D01*
X33966114Y-50452838D01*
X33870876Y-50548076D01*
X33775638Y-50595695D01*
X33680495Y-116584980D02*
X33680495Y-115584980D01*
X33680495Y-116061171D02*
X34251923Y-116061171D01*
X34251923Y-116584980D02*
X34251923Y-115584980D01*
X34632876Y-115584980D02*
X35251923Y-115584980D01*
X34918590Y-115965933D01*
X35061447Y-115965933D01*
X35156685Y-116013552D01*
X35204304Y-116061171D01*
X35251923Y-116156409D01*
X35251923Y-116394504D01*
X35204304Y-116489742D01*
X35156685Y-116537361D01*
X35061447Y-116584980D01*
X34775733Y-116584980D01*
X34680495Y-116537361D01*
X34632876Y-116489742D01*
X121691495Y-28637480D02*
X121691495Y-27637480D01*
X121691495Y-28113671D02*
X122262923Y-28113671D01*
X122262923Y-28637480D02*
X122262923Y-27637480D01*
X123262923Y-28637480D02*
X122691495Y-28637480D01*
X122977209Y-28637480D02*
X122977209Y-27637480D01*
X122881971Y-27780338D01*
X122786733Y-27875576D01*
X122691495Y-27923195D01*
X33680495Y-28637480D02*
X33680495Y-27637480D01*
X33680495Y-28113671D02*
X34251923Y-28113671D01*
X34251923Y-28637480D02*
X34251923Y-27637480D01*
X34680495Y-27732719D02*
X34728114Y-27685100D01*
X34823352Y-27637480D01*
X35061447Y-27637480D01*
X35156685Y-27685100D01*
X35204304Y-27732719D01*
X35251923Y-27827957D01*
X35251923Y-27923195D01*
X35204304Y-28066052D01*
X34632876Y-28637480D01*
X35251923Y-28637480D01*
X121627995Y-116584980D02*
X121627995Y-115584980D01*
X121627995Y-116061171D02*
X122199423Y-116061171D01*
X122199423Y-116584980D02*
X122199423Y-115584980D01*
X123104185Y-115918314D02*
X123104185Y-116584980D01*
X122866090Y-115537361D02*
X122627995Y-116251647D01*
X123247042Y-116251647D01*
X37603380Y-62557723D02*
X38603380Y-61891057D01*
X37603380Y-61891057D02*
X38603380Y-62557723D01*
X38603380Y-60986295D02*
X38603380Y-61557723D01*
X38603380Y-61272009D02*
X37603380Y-61272009D01*
X37746238Y-61367247D01*
X37841476Y-61462485D01*
X37889095Y-61557723D01*
X120120980Y-48913895D02*
X120930504Y-48913895D01*
X121025742Y-48866276D01*
X121073361Y-48818657D01*
X121120980Y-48723419D01*
X121120980Y-48532942D01*
X121073361Y-48437704D01*
X121025742Y-48390085D01*
X120930504Y-48342466D01*
X120120980Y-48342466D01*
X121120980Y-47342466D02*
X121120980Y-47913895D01*
X121120980Y-47628180D02*
X120120980Y-47628180D01*
X120263838Y-47723419D01*
X120359076Y-47818657D01*
X120406695Y-47913895D01*
X120216219Y-46961514D02*
X120168600Y-46913895D01*
X120120980Y-46818657D01*
X120120980Y-46580561D01*
X120168600Y-46485323D01*
X120216219Y-46437704D01*
X120311457Y-46390085D01*
X120406695Y-46390085D01*
X120549552Y-46437704D01*
X121120980Y-47009133D01*
X121120980Y-46390085D01*
X45040704Y-65549980D02*
X45040704Y-66359504D01*
X45088323Y-66454742D01*
X45135942Y-66502361D01*
X45231180Y-66549980D01*
X45421657Y-66549980D01*
X45516895Y-66502361D01*
X45564514Y-66454742D01*
X45612133Y-66359504D01*
X45612133Y-65549980D01*
X46612133Y-66549980D02*
X46040704Y-66549980D01*
X46326419Y-66549980D02*
X46326419Y-65549980D01*
X46231180Y-65692838D01*
X46135942Y-65788076D01*
X46040704Y-65835695D01*
X47564514Y-66549980D02*
X46993085Y-66549980D01*
X47278800Y-66549980D02*
X47278800Y-65549980D01*
X47183561Y-65692838D01*
X47088323Y-65788076D01*
X46993085Y-65835695D01*
X78148380Y-34131095D02*
X78957904Y-34131095D01*
X79053142Y-34083476D01*
X79100761Y-34035857D01*
X79148380Y-33940619D01*
X79148380Y-33750142D01*
X79100761Y-33654904D01*
X79053142Y-33607285D01*
X78957904Y-33559666D01*
X78148380Y-33559666D01*
X79148380Y-32559666D02*
X79148380Y-33131095D01*
X79148380Y-32845380D02*
X78148380Y-32845380D01*
X78291238Y-32940619D01*
X78386476Y-33035857D01*
X78434095Y-33131095D01*
X78148380Y-31940619D02*
X78148380Y-31845380D01*
X78196000Y-31750142D01*
X78243619Y-31702523D01*
X78338857Y-31654904D01*
X78529333Y-31607285D01*
X78767428Y-31607285D01*
X78957904Y-31654904D01*
X79053142Y-31702523D01*
X79100761Y-31750142D01*
X79148380Y-31845380D01*
X79148380Y-31940619D01*
X79100761Y-32035857D01*
X79053142Y-32083476D01*
X78957904Y-32131095D01*
X78767428Y-32178714D01*
X78529333Y-32178714D01*
X78338857Y-32131095D01*
X78243619Y-32083476D01*
X78196000Y-32035857D01*
X78148380Y-31940619D01*
X111455295Y-126496380D02*
X111455295Y-127305904D01*
X111502914Y-127401142D01*
X111550533Y-127448761D01*
X111645771Y-127496380D01*
X111836247Y-127496380D01*
X111931485Y-127448761D01*
X111979104Y-127401142D01*
X112026723Y-127305904D01*
X112026723Y-126496380D01*
X112407676Y-126496380D02*
X113074342Y-126496380D01*
X112645771Y-127496380D01*
X36009780Y-52120704D02*
X36819304Y-52120704D01*
X36914542Y-52073085D01*
X36962161Y-52025466D01*
X37009780Y-51930228D01*
X37009780Y-51739752D01*
X36962161Y-51644514D01*
X36914542Y-51596895D01*
X36819304Y-51549276D01*
X36009780Y-51549276D01*
X36009780Y-50644514D02*
X36009780Y-50834990D01*
X36057400Y-50930228D01*
X36105019Y-50977847D01*
X36247876Y-51073085D01*
X36438352Y-51120704D01*
X36819304Y-51120704D01*
X36914542Y-51073085D01*
X36962161Y-51025466D01*
X37009780Y-50930228D01*
X37009780Y-50739752D01*
X36962161Y-50644514D01*
X36914542Y-50596895D01*
X36819304Y-50549276D01*
X36581209Y-50549276D01*
X36485971Y-50596895D01*
X36438352Y-50644514D01*
X36390733Y-50739752D01*
X36390733Y-50930228D01*
X36438352Y-51025466D01*
X36485971Y-51073085D01*
X36581209Y-51120704D01*
X96741180Y-33654904D02*
X97550704Y-33654904D01*
X97645942Y-33607285D01*
X97693561Y-33559666D01*
X97741180Y-33464428D01*
X97741180Y-33273952D01*
X97693561Y-33178714D01*
X97645942Y-33131095D01*
X97550704Y-33083476D01*
X96741180Y-33083476D01*
X97074514Y-32178714D02*
X97741180Y-32178714D01*
X96693561Y-32416809D02*
X97407847Y-32654904D01*
X97407847Y-32035857D01*
X111455295Y-95051180D02*
X111455295Y-95860704D01*
X111502914Y-95955942D01*
X111550533Y-96003561D01*
X111645771Y-96051180D01*
X111836247Y-96051180D01*
X111931485Y-96003561D01*
X111979104Y-95955942D01*
X112026723Y-95860704D01*
X112026723Y-95051180D01*
X112407676Y-95051180D02*
X113026723Y-95051180D01*
X112693390Y-95432133D01*
X112836247Y-95432133D01*
X112931485Y-95479752D01*
X112979104Y-95527371D01*
X113026723Y-95622609D01*
X113026723Y-95860704D01*
X112979104Y-95955942D01*
X112931485Y-96003561D01*
X112836247Y-96051180D01*
X112550533Y-96051180D01*
X112455295Y-96003561D01*
X112407676Y-95955942D01*
X78816295Y-78007780D02*
X78816295Y-78817304D01*
X78863914Y-78912542D01*
X78911533Y-78960161D01*
X79006771Y-79007780D01*
X79197247Y-79007780D01*
X79292485Y-78960161D01*
X79340104Y-78912542D01*
X79387723Y-78817304D01*
X79387723Y-78007780D01*
X80387723Y-79007780D02*
X79816295Y-79007780D01*
X80102009Y-79007780D02*
X80102009Y-78007780D01*
X80006771Y-78150638D01*
X79911533Y-78245876D01*
X79816295Y-78293495D01*
X31869980Y-110986866D02*
X31393790Y-111320200D01*
X31869980Y-111558295D02*
X30869980Y-111558295D01*
X30869980Y-111177342D01*
X30917600Y-111082104D01*
X30965219Y-111034485D01*
X31060457Y-110986866D01*
X31203314Y-110986866D01*
X31298552Y-111034485D01*
X31346171Y-111082104D01*
X31393790Y-111177342D01*
X31393790Y-111558295D01*
X31869980Y-110510676D02*
X31869980Y-110320200D01*
X31822361Y-110224961D01*
X31774742Y-110177342D01*
X31631885Y-110082104D01*
X31441409Y-110034485D01*
X31060457Y-110034485D01*
X30965219Y-110082104D01*
X30917600Y-110129723D01*
X30869980Y-110224961D01*
X30869980Y-110415438D01*
X30917600Y-110510676D01*
X30965219Y-110558295D01*
X31060457Y-110605914D01*
X31298552Y-110605914D01*
X31393790Y-110558295D01*
X31441409Y-110510676D01*
X31489028Y-110415438D01*
X31489028Y-110224961D01*
X31441409Y-110129723D01*
X31393790Y-110082104D01*
X31298552Y-110034485D01*
X47465580Y-111012266D02*
X46989390Y-111345600D01*
X47465580Y-111583695D02*
X46465580Y-111583695D01*
X46465580Y-111202742D01*
X46513200Y-111107504D01*
X46560819Y-111059885D01*
X46656057Y-111012266D01*
X46798914Y-111012266D01*
X46894152Y-111059885D01*
X46941771Y-111107504D01*
X46989390Y-111202742D01*
X46989390Y-111583695D01*
X46894152Y-110440838D02*
X46846533Y-110536076D01*
X46798914Y-110583695D01*
X46703676Y-110631314D01*
X46656057Y-110631314D01*
X46560819Y-110583695D01*
X46513200Y-110536076D01*
X46465580Y-110440838D01*
X46465580Y-110250361D01*
X46513200Y-110155123D01*
X46560819Y-110107504D01*
X46656057Y-110059885D01*
X46703676Y-110059885D01*
X46798914Y-110107504D01*
X46846533Y-110155123D01*
X46894152Y-110250361D01*
X46894152Y-110440838D01*
X46941771Y-110536076D01*
X46989390Y-110583695D01*
X47084628Y-110631314D01*
X47275104Y-110631314D01*
X47370342Y-110583695D01*
X47417961Y-110536076D01*
X47465580Y-110440838D01*
X47465580Y-110250361D01*
X47417961Y-110155123D01*
X47370342Y-110107504D01*
X47275104Y-110059885D01*
X47084628Y-110059885D01*
X46989390Y-110107504D01*
X46941771Y-110155123D01*
X46894152Y-110250361D01*
X80993580Y-119292666D02*
X80517390Y-119626000D01*
X80993580Y-119864095D02*
X79993580Y-119864095D01*
X79993580Y-119483142D01*
X80041200Y-119387904D01*
X80088819Y-119340285D01*
X80184057Y-119292666D01*
X80326914Y-119292666D01*
X80422152Y-119340285D01*
X80469771Y-119387904D01*
X80517390Y-119483142D01*
X80517390Y-119864095D01*
X79993580Y-118959333D02*
X79993580Y-118292666D01*
X80993580Y-118721238D01*
X28009180Y-110961466D02*
X27532990Y-111294800D01*
X28009180Y-111532895D02*
X27009180Y-111532895D01*
X27009180Y-111151942D01*
X27056800Y-111056704D01*
X27104419Y-111009085D01*
X27199657Y-110961466D01*
X27342514Y-110961466D01*
X27437752Y-111009085D01*
X27485371Y-111056704D01*
X27532990Y-111151942D01*
X27532990Y-111532895D01*
X27009180Y-110104323D02*
X27009180Y-110294800D01*
X27056800Y-110390038D01*
X27104419Y-110437657D01*
X27247276Y-110532895D01*
X27437752Y-110580514D01*
X27818704Y-110580514D01*
X27913942Y-110532895D01*
X27961561Y-110485276D01*
X28009180Y-110390038D01*
X28009180Y-110199561D01*
X27961561Y-110104323D01*
X27913942Y-110056704D01*
X27818704Y-110009085D01*
X27580609Y-110009085D01*
X27485371Y-110056704D01*
X27437752Y-110104323D01*
X27390133Y-110199561D01*
X27390133Y-110390038D01*
X27437752Y-110485276D01*
X27485371Y-110532895D01*
X27580609Y-110580514D01*
X35776380Y-110985066D02*
X35300190Y-111318400D01*
X35776380Y-111556495D02*
X34776380Y-111556495D01*
X34776380Y-111175542D01*
X34824000Y-111080304D01*
X34871619Y-111032685D01*
X34966857Y-110985066D01*
X35109714Y-110985066D01*
X35204952Y-111032685D01*
X35252571Y-111080304D01*
X35300190Y-111175542D01*
X35300190Y-111556495D01*
X34776380Y-110080304D02*
X34776380Y-110556495D01*
X35252571Y-110604114D01*
X35204952Y-110556495D01*
X35157333Y-110461257D01*
X35157333Y-110223161D01*
X35204952Y-110127923D01*
X35252571Y-110080304D01*
X35347809Y-110032685D01*
X35585904Y-110032685D01*
X35681142Y-110080304D01*
X35728761Y-110127923D01*
X35776380Y-110223161D01*
X35776380Y-110461257D01*
X35728761Y-110556495D01*
X35681142Y-110604114D01*
X43680980Y-111012266D02*
X43204790Y-111345600D01*
X43680980Y-111583695D02*
X42680980Y-111583695D01*
X42680980Y-111202742D01*
X42728600Y-111107504D01*
X42776219Y-111059885D01*
X42871457Y-111012266D01*
X43014314Y-111012266D01*
X43109552Y-111059885D01*
X43157171Y-111107504D01*
X43204790Y-111202742D01*
X43204790Y-111583695D01*
X43014314Y-110155123D02*
X43680980Y-110155123D01*
X42633361Y-110393219D02*
X43347647Y-110631314D01*
X43347647Y-110012266D01*
X39820180Y-111012266D02*
X39343990Y-111345600D01*
X39820180Y-111583695D02*
X38820180Y-111583695D01*
X38820180Y-111202742D01*
X38867800Y-111107504D01*
X38915419Y-111059885D01*
X39010657Y-111012266D01*
X39153514Y-111012266D01*
X39248752Y-111059885D01*
X39296371Y-111107504D01*
X39343990Y-111202742D01*
X39343990Y-111583695D01*
X38820180Y-110678933D02*
X38820180Y-110059885D01*
X39201133Y-110393219D01*
X39201133Y-110250361D01*
X39248752Y-110155123D01*
X39296371Y-110107504D01*
X39391609Y-110059885D01*
X39629704Y-110059885D01*
X39724942Y-110107504D01*
X39772561Y-110155123D01*
X39820180Y-110250361D01*
X39820180Y-110536076D01*
X39772561Y-110631314D01*
X39724942Y-110678933D01*
X77208980Y-119292666D02*
X76732790Y-119626000D01*
X77208980Y-119864095D02*
X76208980Y-119864095D01*
X76208980Y-119483142D01*
X76256600Y-119387904D01*
X76304219Y-119340285D01*
X76399457Y-119292666D01*
X76542314Y-119292666D01*
X76637552Y-119340285D01*
X76685171Y-119387904D01*
X76732790Y-119483142D01*
X76732790Y-119864095D01*
X76304219Y-118911714D02*
X76256600Y-118864095D01*
X76208980Y-118768857D01*
X76208980Y-118530761D01*
X76256600Y-118435523D01*
X76304219Y-118387904D01*
X76399457Y-118340285D01*
X76494695Y-118340285D01*
X76637552Y-118387904D01*
X77208980Y-118959333D01*
X77208980Y-118340285D01*
X73398980Y-119292666D02*
X72922790Y-119626000D01*
X73398980Y-119864095D02*
X72398980Y-119864095D01*
X72398980Y-119483142D01*
X72446600Y-119387904D01*
X72494219Y-119340285D01*
X72589457Y-119292666D01*
X72732314Y-119292666D01*
X72827552Y-119340285D01*
X72875171Y-119387904D01*
X72922790Y-119483142D01*
X72922790Y-119864095D01*
X73398980Y-118340285D02*
X73398980Y-118911714D01*
X73398980Y-118626000D02*
X72398980Y-118626000D01*
X72541838Y-118721238D01*
X72637076Y-118816476D01*
X72684695Y-118911714D01*
X55831382Y-116260226D02*
X55879001Y-116307845D01*
X55926620Y-116450702D01*
X55926620Y-116545940D01*
X55879001Y-116688798D01*
X55783763Y-116784036D01*
X55688525Y-116831655D01*
X55498049Y-116879274D01*
X55355192Y-116879274D01*
X55164716Y-116831655D01*
X55069478Y-116784036D01*
X54974240Y-116688798D01*
X54926620Y-116545940D01*
X54926620Y-116450702D01*
X54974240Y-116307845D01*
X55021859Y-116260226D01*
X55355192Y-115688798D02*
X55307573Y-115784036D01*
X55259954Y-115831655D01*
X55164716Y-115879274D01*
X55117097Y-115879274D01*
X55021859Y-115831655D01*
X54974240Y-115784036D01*
X54926620Y-115688798D01*
X54926620Y-115498321D01*
X54974240Y-115403083D01*
X55021859Y-115355464D01*
X55117097Y-115307845D01*
X55164716Y-115307845D01*
X55259954Y-115355464D01*
X55307573Y-115403083D01*
X55355192Y-115498321D01*
X55355192Y-115688798D01*
X55402811Y-115784036D01*
X55450430Y-115831655D01*
X55545668Y-115879274D01*
X55736144Y-115879274D01*
X55831382Y-115831655D01*
X55879001Y-115784036D01*
X55926620Y-115688798D01*
X55926620Y-115498321D01*
X55879001Y-115403083D01*
X55831382Y-115355464D01*
X55736144Y-115307845D01*
X55545668Y-115307845D01*
X55450430Y-115355464D01*
X55402811Y-115403083D01*
X55355192Y-115498321D01*
X123689133Y-42484942D02*
X123641514Y-42532561D01*
X123498657Y-42580180D01*
X123403419Y-42580180D01*
X123260561Y-42532561D01*
X123165323Y-42437323D01*
X123117704Y-42342085D01*
X123070085Y-42151609D01*
X123070085Y-42008752D01*
X123117704Y-41818276D01*
X123165323Y-41723038D01*
X123260561Y-41627800D01*
X123403419Y-41580180D01*
X123498657Y-41580180D01*
X123641514Y-41627800D01*
X123689133Y-41675419D01*
X124022466Y-41580180D02*
X124689133Y-41580180D01*
X124260561Y-42580180D01*
X116780333Y-57369342D02*
X116732714Y-57416961D01*
X116589857Y-57464580D01*
X116494619Y-57464580D01*
X116351761Y-57416961D01*
X116256523Y-57321723D01*
X116208904Y-57226485D01*
X116161285Y-57036009D01*
X116161285Y-56893152D01*
X116208904Y-56702676D01*
X116256523Y-56607438D01*
X116351761Y-56512200D01*
X116494619Y-56464580D01*
X116589857Y-56464580D01*
X116732714Y-56512200D01*
X116780333Y-56559819D01*
X117637476Y-56464580D02*
X117447000Y-56464580D01*
X117351761Y-56512200D01*
X117304142Y-56559819D01*
X117208904Y-56702676D01*
X117161285Y-56893152D01*
X117161285Y-57274104D01*
X117208904Y-57369342D01*
X117256523Y-57416961D01*
X117351761Y-57464580D01*
X117542238Y-57464580D01*
X117637476Y-57416961D01*
X117685095Y-57369342D01*
X117732714Y-57274104D01*
X117732714Y-57036009D01*
X117685095Y-56940771D01*
X117637476Y-56893152D01*
X117542238Y-56845533D01*
X117351761Y-56845533D01*
X117256523Y-56893152D01*
X117208904Y-56940771D01*
X117161285Y-57036009D01*
X123094133Y-113042342D02*
X123046514Y-113089961D01*
X122903657Y-113137580D01*
X122808419Y-113137580D01*
X122665561Y-113089961D01*
X122570323Y-112994723D01*
X122522704Y-112899485D01*
X122475085Y-112709009D01*
X122475085Y-112566152D01*
X122522704Y-112375676D01*
X122570323Y-112280438D01*
X122665561Y-112185200D01*
X122808419Y-112137580D01*
X122903657Y-112137580D01*
X123046514Y-112185200D01*
X123094133Y-112232819D01*
X123998895Y-112137580D02*
X123522704Y-112137580D01*
X123475085Y-112613771D01*
X123522704Y-112566152D01*
X123617942Y-112518533D01*
X123856038Y-112518533D01*
X123951276Y-112566152D01*
X123998895Y-112613771D01*
X124046514Y-112709009D01*
X124046514Y-112947104D01*
X123998895Y-113042342D01*
X123951276Y-113089961D01*
X123856038Y-113137580D01*
X123617942Y-113137580D01*
X123522704Y-113089961D01*
X123475085Y-113042342D01*
X40605733Y-28870542D02*
X40558114Y-28918161D01*
X40415257Y-28965780D01*
X40320019Y-28965780D01*
X40177161Y-28918161D01*
X40081923Y-28822923D01*
X40034304Y-28727685D01*
X39986685Y-28537209D01*
X39986685Y-28394352D01*
X40034304Y-28203876D01*
X40081923Y-28108638D01*
X40177161Y-28013400D01*
X40320019Y-27965780D01*
X40415257Y-27965780D01*
X40558114Y-28013400D01*
X40605733Y-28061019D01*
X41462876Y-28299114D02*
X41462876Y-28965780D01*
X41224780Y-27918161D02*
X40986685Y-28632447D01*
X41605733Y-28632447D01*
X94479133Y-59375942D02*
X94431514Y-59423561D01*
X94288657Y-59471180D01*
X94193419Y-59471180D01*
X94050561Y-59423561D01*
X93955323Y-59328323D01*
X93907704Y-59233085D01*
X93860085Y-59042609D01*
X93860085Y-58899752D01*
X93907704Y-58709276D01*
X93955323Y-58614038D01*
X94050561Y-58518800D01*
X94193419Y-58471180D01*
X94288657Y-58471180D01*
X94431514Y-58518800D01*
X94479133Y-58566419D01*
X94812466Y-58471180D02*
X95431514Y-58471180D01*
X95098180Y-58852133D01*
X95241038Y-58852133D01*
X95336276Y-58899752D01*
X95383895Y-58947371D01*
X95431514Y-59042609D01*
X95431514Y-59280704D01*
X95383895Y-59375942D01*
X95336276Y-59423561D01*
X95241038Y-59471180D01*
X94955323Y-59471180D01*
X94860085Y-59423561D01*
X94812466Y-59375942D01*
X76673733Y-107000942D02*
X76626114Y-107048561D01*
X76483257Y-107096180D01*
X76388019Y-107096180D01*
X76245161Y-107048561D01*
X76149923Y-106953323D01*
X76102304Y-106858085D01*
X76054685Y-106667609D01*
X76054685Y-106524752D01*
X76102304Y-106334276D01*
X76149923Y-106239038D01*
X76245161Y-106143800D01*
X76388019Y-106096180D01*
X76483257Y-106096180D01*
X76626114Y-106143800D01*
X76673733Y-106191419D01*
X77054685Y-106191419D02*
X77102304Y-106143800D01*
X77197542Y-106096180D01*
X77435638Y-106096180D01*
X77530876Y-106143800D01*
X77578495Y-106191419D01*
X77626114Y-106286657D01*
X77626114Y-106381895D01*
X77578495Y-106524752D01*
X77007066Y-107096180D01*
X77626114Y-107096180D01*
X78324733Y-80775442D02*
X78277114Y-80823061D01*
X78134257Y-80870680D01*
X78039019Y-80870680D01*
X77896161Y-80823061D01*
X77800923Y-80727823D01*
X77753304Y-80632585D01*
X77705685Y-80442109D01*
X77705685Y-80299252D01*
X77753304Y-80108776D01*
X77800923Y-80013538D01*
X77896161Y-79918300D01*
X78039019Y-79870680D01*
X78134257Y-79870680D01*
X78277114Y-79918300D01*
X78324733Y-79965919D01*
X79277114Y-80870680D02*
X78705685Y-80870680D01*
X78991400Y-80870680D02*
X78991400Y-79870680D01*
X78896161Y-80013538D01*
X78800923Y-80108776D01*
X78705685Y-80156395D01*
M02*
